<svg
    xmlns="http://www.w3.org/2000/svg"
    viewBox="0 0 643 953"
    id="vector">
    <path
        id="path"
        d="M 321.83 0 C 512.01 0 643.64 154.63 643.64 345.36 C 643.64 413.21 606.73 512.99 546.65 605.94 L 321.82 953.73 L 96.99 605.94 C 36.91 512.99 0 413.21 0 345.36 C 0 154.63 131.63 0 321.81 0 L 321.83 0 Z"
        fill="#52b04c"/>
    <path
        id="path_1"
        d="M 243.05 445.26 L 173.42 337.03 L 104.19 445.26 L 243.05 445.26 Z M 314.98 445.26 L 136.24 167.69 L 217.32 167.69 C 227.42 167.69 236.82 172.83 242.28 181.31 L 321.82 304.94 L 401.37 181.31 C 406.83 172.82 416.23 167.69 426.33 167.69 L 507.41 167.69 L 328.67 445.26 L 314.98 445.26 Z M 539.46 445.26 L 469.83 337.03 L 400.6 445.26 L 539.46 445.26 Z"
        fill="#fefefe"/>
    <path
        id="path_2"
        d="M 26.91 468.77 L 174.19 226.63 L 314.99 445.26 L 328.67 445.26 L 467.71 229.33 L 616.65 468.96 L 592.47 524.86 L 469.83 337.02 L 363.05 502.34 L 278.94 501.85 L 173.42 337.02 L 52.41 527.38 Z"
        fill="#21a73f"/>
</svg>
